<svg width="25" height="24" viewBox="0 0 25 24" fill="none" xmlns="http://www.w3.org/2000/svg">
<path d="M24.0925 6.97453C24.0925 4.86516 22.541 3.16828 20.6238 3.16828C18.0269 3.04687 15.3785 3 12.6719 3H11.8282C9.12817 3 6.47504 3.04687 3.87817 3.16875C1.96567 3.16875 0.414103 4.875 0.414103 6.98437C0.296916 8.65266 0.247228 10.3214 0.250041 11.9902C0.245353 13.6589 0.298478 15.3292 0.409416 17.0011C0.409416 19.1105 1.96098 20.8214 3.87348 20.8214C6.6016 20.948 9.40004 21.0042 12.2454 20.9995C15.0954 21.0089 17.886 20.9495 20.6172 20.8214C22.5344 20.8214 24.086 19.1105 24.086 17.0011C24.1985 15.3277 24.25 13.6589 24.2454 11.9855C24.256 10.3167 24.205 8.64641 24.0925 6.97453ZM9.95317 16.5886V7.37766L16.75 11.9808L9.95317 16.5886Z" fill="white"/>
</svg>
